<svg width="1024" height="1024" viewBox="0 0 1024 1024" fill="none" xmlns="http://www.w3.org/2000/svg">
<path d="M485.785 919.928C405.419 914.173 328.342 885.603 264.419 837.712C243.043 821.68 203.785 782.628 187.958 761.868C120.747 672.87 91.5605 566.195 105.332 459.314C120.13 344.212 181.792 242.882 277.779 175.876C399.458 90.9882 559.162 78.4503 690.913 143.606C731.404 163.749 748.875 175.465 787.311 208.762C834.79 249.87 878.364 315.231 900.357 378.949C913.717 418.001 923.789 479.046 921.733 510.083C921.116 520.976 919.883 524.676 914.745 531.047C911.251 535.364 904.879 540.913 900.357 543.38L892.341 548.107H758.329C684.746 548.107 623.085 548.724 621.235 549.341C619.385 549.957 617.946 551.807 617.946 553.451C617.946 555.918 607.875 556.329 557.929 556.329C523.604 556.329 494.417 555.507 490.101 554.273C480.852 551.601 468.93 538.858 466.053 528.17C461.12 510.905 465.436 485.212 474.48 476.58C485.374 466.508 490.306 465.892 556.079 465.892C608.697 465.892 617.741 466.303 618.768 468.975C619.796 471.647 634.184 472.058 732.226 472.058H844.656L843.217 460.342C839.517 429.306 823.074 380.593 805.809 349.762C770.251 286.25 711.467 232.81 646.516 204.651C508.805 145.045 349.718 182.864 253.731 298.172C218.173 340.513 191.658 399.297 181.792 456.437C176.243 489.118 177.476 546.052 184.259 577.91C199.674 650.26 238.932 717.06 292.783 763.101C339.03 802.565 388.77 827.024 447.143 839.356C469.341 843.878 478.18 844.7 510.038 844.906C536.553 844.906 552.585 843.878 566.561 841.412C637.884 828.463 702.423 794.549 751.958 744.192C767.373 728.571 773.128 721.377 791.627 695.273C796.971 687.874 802.931 682.119 808.275 679.652C826.363 670.609 848.972 677.186 857.81 694.04C869.115 715.211 861.716 732.476 821.636 778.928C751.958 859.91 653.093 910.062 543.952 919.928C518.465 922.394 518.465 922.394 485.785 919.928Z" fill="#E6F1FF"/>
<path d="M469.341 777.078C441.799 772.967 426.384 768.034 427.206 764.129C428.028 759.607 436.661 758.991 451.048 762.69C457.831 764.54 467.286 765.979 472.013 765.979H480.852L475.508 760.84C472.63 757.963 468.725 752.413 466.875 748.508C464.203 742.547 462.559 741.314 456.803 741.314C452.282 741.314 448.582 739.464 444.677 735.559C441.594 732.476 439.127 728.982 439.127 727.749C439.127 725.282 430.7 718.91 418.984 712.539C411.585 708.633 408.091 704.934 404.186 696.918C398.636 685.613 394.936 681.297 389.387 679.036C387.331 678.419 385.687 676.775 385.687 675.542C385.687 674.514 384.248 673.486 382.604 673.486C380.549 673.486 379.521 671.225 379.521 666.292C379.521 662.387 380.343 659.098 381.576 659.098C382.604 659.098 388.976 663.209 395.758 668.348C412.202 680.886 440.36 694.451 461.737 700.412C476.535 704.317 484.14 705.139 511.066 705.139C537.992 705.345 545.596 704.523 560.395 700.617C602.325 689.313 642.2 662.798 668.509 628.473C686.596 604.631 693.585 600.52 711.261 601.958C736.748 604.014 752.163 629.912 741.886 653.138C730.993 677.597 692.763 716.033 655.971 739.67C604.381 772.967 533.264 787.149 469.341 777.078Z" fill="#4DAAFF"/>
<path d="M360.406 653.343C358.35 651.288 356.911 648.41 356.911 647.177C356.911 644.094 349.512 636.489 346.635 636.489C343.757 636.489 343.963 622.718 346.84 620.868C348.279 620.046 350.129 621.074 351.362 623.129C352.39 625.185 359.378 633.612 366.572 642.039L379.726 657.043H371.71C366.572 657.043 362.461 655.604 360.406 653.343Z" fill="#4DAAFF"/>
<path d="M483.113 623.129C445.499 614.908 412.202 583.255 399.869 543.997C394.525 526.731 394.114 498.367 399.047 481.307C409.735 444.104 434.811 417.179 471.602 402.791C483.524 398.064 488.662 397.242 509.01 397.242C529.975 397.036 534.292 397.653 548.474 402.791C577.044 413.479 598.009 431.361 612.808 458.287L620.413 472.058H559.984C505.722 472.058 498.939 472.469 491.334 475.963C480.441 480.896 474.891 488.295 472.013 501.45C470.164 509.671 470.164 514.193 471.808 520.976C474.891 532.486 486.607 545.435 496.267 548.107C500.583 549.135 528.742 550.163 561.012 550.163C598.625 550.163 617.946 550.779 617.946 552.218C617.946 553.451 615.069 560.028 611.575 567.017C603.353 583.254 579.099 607.303 563.889 614.702C540.252 625.801 509.833 628.884 483.113 623.129Z" fill="#4DAAFF"/>
<path d="M303.471 492.612H315.804V523.443H303.471V492.612Z" fill="#4DAAFF"/>
<path d="M332.247 418.618C330.603 417.59 327.108 416.562 324.642 416.562C315.804 416.562 315.804 394.569 324.642 390.253C328.342 388.609 328.547 387.992 325.67 387.992C323.409 387.787 321.97 386.142 321.97 383.881C321.97 381.826 320.737 379.565 319.092 378.949C315.598 377.51 313.748 379.154 313.748 383.059C313.748 388.198 302.855 395.803 295.455 396.008H288.467L289.495 385.731C290.522 375.454 290.522 375.454 284.562 375.454H278.601L289.495 359.628C303.06 339.896 330.191 311.121 349.512 296.322C418.573 243.498 514.56 227.672 597.392 255.625C646.105 271.863 694.201 305.365 725.649 344.623C739.831 362.094 743.531 370.11 743.531 382.854C743.736 400.324 733.459 414.301 716.811 418.618C697.901 423.55 685.363 417.179 666.865 392.72C638.911 355.517 600.886 331.674 550.735 319.753C535.319 316.054 528.537 315.642 504.9 316.465C471.397 317.903 454.954 322.014 425.767 336.607C390.62 354.284 365.75 376.071 348.073 404.846C342.524 413.479 337.591 420.673 336.769 420.673C335.947 420.673 333.891 419.645 332.247 418.618Z" fill="#4DAAFF"/>
<path d="M467.697 775.845C465.642 773.789 462.559 772.967 459.065 773.584C455.981 774.2 453.515 773.789 453.515 772.556C453.515 771.323 451.665 770.912 449.404 771.528C447.143 772.145 445.293 771.734 445.293 770.501C445.293 769.267 443.444 768.856 441.183 769.473C438.922 770.089 437.072 769.678 437.072 768.445C437.072 767.212 435.428 766.801 433.372 767.417C428.439 768.651 405.008 759.607 383.632 748.097C325.053 716.649 276.957 660.126 256.197 597.848C245.715 565.989 243.248 550.163 243.248 513.166C243.043 474.113 247.154 450.065 259.692 416.562C268.53 392.72 275.929 379.36 291.55 358.6C301.827 345.035 311.487 334.758 306.76 342.157C305.938 343.596 306.349 344.623 307.377 344.623C308.61 344.623 311.898 340.924 314.776 336.402C317.448 332.086 321.764 327.358 324.025 326.125C326.286 324.892 328.136 322.836 328.136 321.603C328.136 320.164 325.258 321.809 321.97 325.097C318.476 328.386 315.804 330.03 315.804 328.797C315.804 325.714 322.792 319.959 327.93 318.931C330.191 318.52 333.275 317.492 334.302 316.876C339.03 313.998 335.947 319.342 330.191 324.07C326.697 326.947 323.614 331.469 323.203 334.346C322.381 342.157 319.914 346.473 315.598 347.707C313.337 348.529 310.871 352.228 309.638 356.75C308.61 361.067 305.321 367.849 302.855 371.755C300.183 375.66 297.305 381.415 296.483 384.498L295.044 390.253L301.21 385.526C304.499 382.854 307.377 379.36 307.377 377.921C307.582 374.838 313.748 364.766 316.831 362.711C321.148 359.422 324.025 361.272 324.025 367.233C324.025 370.727 325.053 373.399 326.081 373.399C327.314 373.399 328.136 375.249 328.136 377.51C328.136 380.182 329.575 381.621 332.247 381.621C334.508 381.621 336.358 382.648 336.358 383.881C336.358 385.32 338.413 385.731 341.496 384.909C344.785 384.087 346.635 384.498 346.635 385.937C346.635 387.376 348.895 385.937 351.773 382.854C356.5 377.715 362.872 375.865 365.75 378.743C366.366 379.565 363.283 384.293 358.761 389.637C354.034 394.775 349.307 401.352 348.279 404.23C347.046 407.313 345.812 408.341 345.196 406.902C344.579 405.463 342.935 404.23 341.291 404.23C339.646 404.23 338.413 402.791 338.413 400.941C338.413 399.297 337.385 398.475 336.152 399.297C334.508 400.119 334.302 399.091 335.33 395.803C336.769 391.281 336.769 391.281 333.48 394.569C331.425 396.419 329.164 398.064 328.136 398.064C327.314 398.064 326.081 399.914 325.464 402.174C324.847 404.435 325.259 406.285 326.492 406.285C327.519 406.285 327.725 407.313 327.108 408.341C326.492 409.574 327.931 410.396 330.603 410.396C341.291 410.396 341.496 412.862 332.863 433.211C325.053 451.504 319.709 470.619 316.831 490.145C316.009 495.489 314.365 498.778 312.515 498.778C310.46 498.778 309.638 501.45 309.638 508.027C309.638 514.399 310.46 517.276 312.31 517.276C314.365 517.276 316.009 522.826 317.654 535.364C321.764 564.962 331.836 592.915 346.84 616.346C350.334 621.69 352.595 627.034 351.773 628.268C351.156 629.295 351.362 630.323 352.595 630.323C355.678 630.323 365.955 640.394 364.517 642.039C362.872 643.477 368.833 650.877 371.71 650.877C372.738 650.877 377.26 653.754 381.782 657.454C387.537 662.181 389.181 664.442 387.331 665.676C385.687 666.703 386.92 667.32 390.825 667.525C394.32 667.525 395.758 668.142 394.32 668.759C390.209 670.403 393.703 673.486 399.664 673.486C403.569 673.486 404.391 674.103 402.541 675.336C400.28 676.775 400.28 677.186 402.747 678.214C404.391 678.83 407.063 682.941 408.502 687.257C410.763 694.04 411.174 694.451 412.818 690.957C414.257 687.668 414.257 687.874 413.435 692.19C412.407 698.356 415.49 701.851 427 707.195C431.111 709.044 436.455 712.539 438.716 714.594C441.183 716.855 444.06 718.705 445.088 718.705C446.321 718.705 446.732 719.938 446.116 721.377C444.882 724.666 454.543 734.12 459.27 734.326C461.325 734.531 464.409 734.737 466.258 734.942C468.108 734.942 471.397 738.437 473.247 742.342C475.096 746.247 480.235 753.03 484.962 757.552C492.567 764.951 492.978 765.979 489.895 768.856C488.251 770.706 483.524 772.145 479.413 772.145C474.48 772.145 472.219 773.173 471.602 775.639C470.986 778.722 470.78 778.722 467.697 775.845Z" fill="#4DAAFF"/>
<path d="M432.55 707.194C429.261 705.55 426.795 703.7 426.795 703.289C426.795 701.234 430.083 702.467 435.016 706.372C441.183 711.1 440.155 711.511 432.55 707.194Z" fill="#4DAAFF"/>
<path d="M438.305 600.52C437.688 598.67 437.072 596.82 437.072 596.409C437.072 594.97 445.499 598.053 446.732 600.109C447.554 601.342 446.938 601.547 445.293 600.52C443.855 599.698 442.21 600.109 441.183 601.547C440.155 603.192 439.333 602.986 438.305 600.52Z" fill="#4DAAFF"/>
<path d="M373.149 367.027C370.683 365.383 370.683 364.972 373.355 363.122C377.877 360.244 381.576 360.656 381.576 363.944C381.576 367.644 376.849 369.494 373.149 367.027Z" fill="#4DAAFF"/>
<path d="M309.637 334.347C310.871 332.086 312.721 330.236 313.954 330.236C315.187 330.236 315.187 331.674 313.748 334.347C312.515 336.607 310.665 338.457 309.432 338.457C308.199 338.457 308.199 337.019 309.637 334.347Z" fill="#4DAAFF"/>
</svg>
