<svg width="1200" height="300" viewBox="0 0 1200 300" fill="none" xmlns="http://www.w3.org/2000/svg">
<path d="M393.064 239.558C375.417 238.295 358.491 232.021 344.455 221.505C339.761 217.984 331.14 209.409 327.665 204.85C312.906 185.307 306.497 161.883 309.521 138.413C312.771 113.138 326.311 90.8871 347.389 76.1734C374.108 57.5331 409.177 54.7799 438.108 69.0874C446.999 73.5105 450.836 76.0832 459.276 83.3949C469.702 92.4217 479.27 106.774 484.099 120.766C487.033 129.341 489.245 142.746 488.793 149.561C488.658 151.953 488.387 152.766 487.259 154.165C486.491 155.113 485.092 156.331 484.099 156.873L482.339 157.911H452.912C436.754 157.911 423.214 158.046 422.807 158.182C422.401 158.317 422.085 158.723 422.085 159.085C422.085 159.626 419.874 159.716 408.906 159.716C401.369 159.716 394.96 159.536 394.012 159.265C391.981 158.678 389.363 155.88 388.731 153.533C387.648 149.742 388.596 144.1 390.582 142.204C392.974 139.993 394.057 139.857 408.5 139.857C420.054 139.857 422.04 139.948 422.266 140.534C422.491 141.121 425.651 141.211 447.18 141.211H471.868L471.552 138.639C470.74 131.824 467.129 121.127 463.338 114.357C455.53 100.41 442.621 88.6755 428.359 82.4922C398.119 69.4033 363.185 77.708 342.108 103.028C334.3 112.326 328.477 125.234 326.311 137.781C325.092 144.958 325.363 157.46 326.853 164.455C330.238 180.343 338.858 195.011 350.683 205.121C360.838 213.787 371.761 219.158 384.579 221.866C389.453 222.859 391.394 223.039 398.39 223.085C404.212 223.085 407.733 222.859 410.802 222.317C426.463 219.474 440.635 212.027 451.513 200.969C454.898 197.539 456.161 195.959 460.223 190.227C461.397 188.602 462.706 187.338 463.879 186.797C467.851 184.811 472.816 186.255 474.757 189.956C477.239 194.605 475.614 198.396 466.813 208.597C451.513 226.379 429.803 237.392 405.837 239.558C400.24 240.1 400.24 240.1 393.064 239.558Z" fill="#E6F1FF"/>
<path d="M737.933 239.784C737.707 239.604 737.572 228.501 737.572 215.141C737.572 201.781 737.481 190.859 737.301 190.859C737.166 190.859 735.947 192.077 734.593 193.567C721.91 207.242 701.284 210.402 682.734 201.51C672.263 196.501 664.68 188.963 659.219 178.086C654.796 169.375 652.991 161.206 653.036 150.238C653.081 136.879 656.15 126.001 662.694 116.252C665.357 112.326 671.721 106.097 675.648 103.525C695.146 90.9773 719.924 92.9181 734.773 108.128L738.023 111.468V109.257C738.023 108.038 738.158 104.879 738.339 102.261L738.61 97.4315H762.847V239.829L750.525 239.965C743.8 240.055 738.113 239.965 737.933 239.784ZM718.164 182.735C727.823 179.485 734.728 171.903 737.662 161.206C738.474 158.317 738.655 156.467 738.655 150.915C738.61 144.867 738.474 143.739 737.391 140.083C735.631 134.261 733.51 130.74 729.267 126.543C725.295 122.616 722.091 120.675 717.036 119.141C704.173 115.169 689.82 120.54 682.779 131.914C676.325 142.25 676.009 157.053 681.967 168.517C684.359 173.076 689.775 178.447 694.333 180.704C699.749 183.367 703.405 184.134 709.814 183.908C713.831 183.773 715.998 183.457 718.164 182.735Z" fill="#E6F1FF"/>
<path d="M580.957 206.159C566.604 204.85 554.869 199.66 546.023 190.723C538.17 182.78 533.25 173.121 531.219 161.522C530.271 155.97 530.497 143.739 531.716 138.142C535.146 121.984 544.398 109.482 558.57 101.719C573.555 93.55 594.497 92.9181 610.159 100.14C626.316 107.632 636.652 122.3 639.225 141.527C639.766 145.454 639.541 158.272 638.954 159.265C638.773 159.581 625.098 159.716 597.16 159.716C556.359 159.716 555.682 159.716 555.682 160.574C555.682 162.786 558.119 168.924 560.24 172.083C564.302 178.131 569.764 182.058 577.12 184.179C581.995 185.533 592.15 185.668 596.979 184.36C603.118 182.735 608.489 179.666 613.318 175.017C615.078 173.302 615.936 172.76 616.387 173.076C621.577 176.732 623.428 178.041 627.535 180.659C630.559 182.554 632.274 183.908 632.094 184.269C631.326 185.623 627.264 190.407 625.324 192.303C622.074 195.417 616.387 199.344 612.28 201.285C604.02 205.211 591.473 207.152 580.957 206.159ZM614.807 141.302C614.807 141.076 614.582 139.722 614.311 138.233C611.919 124.602 600.996 115.936 586.147 115.891C573.329 115.891 563.716 121.217 558.706 131.147C557.487 133.448 555.682 139.361 555.682 140.85C555.682 141.618 557.262 141.663 585.245 141.663C601.493 141.663 614.807 141.482 614.807 141.302Z" fill="#E6F1FF"/>
<path d="M831.45 206.204C817.098 204.85 805.408 199.57 796.381 190.272C786 179.62 781.216 167.028 781.261 150.69C781.352 129.341 790.559 112.326 807.304 102.712C823.462 93.4146 845.532 92.6924 861.826 100.862C872.252 106.097 880.872 114.853 885.792 125.189C889.673 133.268 891.163 140.489 891.208 150.915C891.253 158.588 890.756 162.334 888.906 168.743C884.257 184.901 870.897 198.532 854.694 203.632C848.15 205.708 838.085 206.791 831.45 206.204ZM843.095 183.367C849.098 182.148 855.552 178.402 859.163 173.979C863.721 168.382 866.158 161.477 866.519 152.991C866.835 146.673 866.294 142.836 864.398 137.51C862.683 132.591 860.607 129.386 856.771 125.821C848.15 117.697 836.235 115.575 824.68 120.044C815.834 123.474 809.109 131.733 806.582 142.34C805.769 145.815 805.679 147.305 805.859 152.495C806.13 159.265 806.807 162.379 809.064 167.163C813.352 176.19 821.07 182.058 830.999 183.773C833.707 184.224 839.89 184.044 843.095 183.367Z" fill="#E6F1FF"/>
<path d="M389.453 208.19C383.405 207.288 380.02 206.204 380.201 205.347C380.381 204.354 382.277 204.219 385.436 205.031C386.926 205.437 389.002 205.753 390.04 205.753H391.981L390.807 204.625C390.176 203.993 389.318 202.774 388.912 201.917C388.325 200.608 387.964 200.337 386.7 200.337C385.707 200.337 384.895 199.931 384.037 199.073C383.36 198.396 382.819 197.629 382.819 197.358C382.819 196.817 380.968 195.417 378.396 194.018C376.771 193.161 376.003 192.348 375.146 190.588C373.927 188.106 373.115 187.158 371.896 186.661C371.445 186.526 371.084 186.165 371.084 185.894C371.084 185.668 370.768 185.443 370.407 185.443C369.956 185.443 369.73 184.946 369.73 183.863C369.73 183.006 369.91 182.283 370.181 182.283C370.407 182.283 371.806 183.186 373.295 184.314C376.906 187.068 383.09 190.046 387.783 191.355C391.033 192.213 392.703 192.393 398.616 192.393C404.528 192.439 406.198 192.258 409.448 191.4C418.655 188.918 427.411 183.096 433.188 175.558C437.16 170.323 438.695 169.42 442.576 169.736C448.173 170.187 451.558 175.874 449.301 180.974C446.909 186.345 438.514 194.785 430.435 199.976C419.106 207.288 403.49 210.402 389.453 208.19Z" fill="#4DAAFF"/>
<path d="M365.532 181.02C365.081 180.568 364.765 179.936 364.765 179.666C364.765 178.989 363.14 177.319 362.508 177.319C361.877 177.319 361.922 174.295 362.554 173.888C362.869 173.708 363.276 173.934 363.546 174.385C363.772 174.836 365.307 176.687 366.886 178.537L369.775 181.832H368.015C366.886 181.832 365.984 181.516 365.532 181.02Z" fill="#4DAAFF"/>
<path d="M392.477 174.385C384.218 172.58 376.906 165.629 374.198 157.008C373.025 153.217 372.934 146.989 374.018 143.242C376.365 135.073 381.871 129.161 389.95 126.001C392.568 124.963 393.696 124.783 398.164 124.783C402.768 124.738 403.716 124.873 406.83 126.001C413.104 128.348 417.707 132.275 420.957 138.187L422.627 141.211H409.357C397.442 141.211 395.953 141.302 394.283 142.069C391.891 143.152 390.672 144.777 390.04 147.666C389.634 149.471 389.634 150.464 389.995 151.953C390.672 154.481 393.245 157.324 395.366 157.911C396.314 158.137 402.497 158.362 409.583 158.362C417.843 158.362 422.085 158.498 422.085 158.814C422.085 159.085 421.453 160.529 420.686 162.063C418.881 165.629 413.555 170.91 410.215 172.534C405.025 174.972 398.345 175.649 392.477 174.385Z" fill="#4DAAFF"/>
<path d="M353.03 145.725H355.738V152.495H353.03V145.725Z" fill="#4DAAFF"/>
<path d="M359.349 129.477C358.988 129.251 358.221 129.025 357.679 129.025C355.738 129.025 355.738 124.196 357.679 123.248C358.491 122.887 358.537 122.752 357.905 122.752C357.408 122.707 357.092 122.345 357.092 121.849C357.092 121.398 356.822 120.901 356.46 120.766C355.693 120.45 355.287 120.811 355.287 121.668C355.287 122.797 352.895 124.467 351.27 124.512H349.736L349.961 122.255C350.187 119.998 350.187 119.998 348.878 119.998H347.569L349.961 116.523C352.94 112.19 358.898 105.872 363.14 102.622C378.305 91.0225 399.383 87.5472 417.572 93.6854C428.269 97.251 438.83 104.608 445.735 113.228C448.85 117.065 449.662 118.825 449.662 121.623C449.707 125.46 447.451 128.529 443.795 129.477C439.642 130.56 436.889 129.161 432.827 123.79C426.689 115.62 418.339 110.385 407.326 107.767C403.941 106.955 402.452 106.864 397.262 107.045C389.905 107.361 386.294 108.264 379.885 111.468C372.167 115.35 366.706 120.134 362.824 126.453C361.606 128.348 360.523 129.928 360.342 129.928C360.161 129.928 359.71 129.702 359.349 129.477Z" fill="#4DAAFF"/>
<path d="M389.092 207.919C388.641 207.468 387.964 207.288 387.197 207.423C386.52 207.558 385.978 207.468 385.978 207.197C385.978 206.926 385.572 206.836 385.075 206.972C384.579 207.107 384.173 207.017 384.173 206.746C384.173 206.475 383.767 206.385 383.27 206.52C382.774 206.656 382.367 206.565 382.367 206.295C382.367 206.024 382.006 205.934 381.555 206.069C380.472 206.34 375.326 204.354 370.633 201.826C357.769 194.921 347.208 182.509 342.649 168.833C340.348 161.838 339.806 158.362 339.806 150.238C339.761 141.663 340.664 136.382 343.417 129.025C345.358 123.79 346.982 120.856 350.413 116.297C352.669 113.319 354.791 111.062 353.752 112.687C353.572 113.003 353.662 113.228 353.888 113.228C354.159 113.228 354.881 112.416 355.513 111.423C356.099 110.475 357.047 109.437 357.544 109.166C358.04 108.896 358.446 108.444 358.446 108.173C358.446 107.857 357.814 108.219 357.092 108.941C356.325 109.663 355.738 110.024 355.738 109.753C355.738 109.076 357.273 107.812 358.401 107.587C358.898 107.496 359.575 107.271 359.8 107.135C360.838 106.503 360.161 107.677 358.898 108.715C358.13 109.347 357.453 110.34 357.363 110.972C357.183 112.687 356.641 113.635 355.693 113.905C355.197 114.086 354.655 114.898 354.384 115.891C354.159 116.839 353.436 118.329 352.895 119.186C352.308 120.044 351.676 121.307 351.496 121.984L351.18 123.248L352.534 122.21C353.256 121.623 353.888 120.856 353.888 120.54C353.933 119.863 355.287 117.652 355.964 117.2C356.912 116.478 357.544 116.884 357.544 118.193C357.544 118.96 357.769 119.547 357.995 119.547C358.266 119.547 358.446 119.953 358.446 120.45C358.446 121.037 358.762 121.353 359.349 121.353C359.846 121.353 360.252 121.578 360.252 121.849C360.252 122.165 360.703 122.255 361.38 122.075C362.102 121.894 362.508 121.984 362.508 122.3C362.508 122.616 363.005 122.3 363.637 121.623C364.675 120.495 366.074 120.089 366.706 120.721C366.841 120.901 366.164 121.939 365.171 123.113C364.133 124.241 363.095 125.685 362.869 126.317C362.599 126.994 362.328 127.22 362.192 126.904C362.057 126.588 361.696 126.317 361.335 126.317C360.974 126.317 360.703 126.001 360.703 125.595C360.703 125.234 360.477 125.053 360.207 125.234C359.846 125.415 359.8 125.189 360.026 124.467C360.342 123.474 360.342 123.474 359.62 124.196C359.169 124.602 358.672 124.963 358.446 124.963C358.266 124.963 357.995 125.369 357.86 125.866C357.724 126.362 357.814 126.769 358.085 126.769C358.311 126.769 358.356 126.994 358.221 127.22C358.085 127.491 358.401 127.671 358.988 127.671C361.335 127.671 361.38 128.213 359.484 132.681C357.769 136.698 356.596 140.896 355.964 145.183C355.783 146.357 355.422 147.079 355.016 147.079C354.565 147.079 354.384 147.666 354.384 149.11C354.384 150.509 354.565 151.141 354.971 151.141C355.422 151.141 355.783 152.36 356.145 155.113C357.047 161.612 359.259 167.75 362.554 172.895C363.321 174.069 363.817 175.242 363.637 175.513C363.501 175.739 363.546 175.965 363.817 175.965C364.494 175.965 366.751 178.176 366.435 178.537C366.074 178.853 367.383 180.478 368.015 180.478C368.24 180.478 369.233 181.11 370.226 181.922C371.49 182.96 371.851 183.457 371.445 183.728C371.084 183.953 371.355 184.089 372.212 184.134C372.979 184.134 373.295 184.269 372.979 184.405C372.077 184.766 372.844 185.443 374.153 185.443C375.011 185.443 375.191 185.578 374.785 185.849C374.288 186.165 374.288 186.255 374.83 186.481C375.191 186.616 375.778 187.519 376.094 188.467C376.59 189.956 376.68 190.046 377.042 189.279C377.357 188.557 377.357 188.602 377.177 189.55C376.951 190.904 377.628 191.671 380.156 192.845C381.058 193.251 382.232 194.018 382.728 194.47C383.27 194.966 383.902 195.372 384.128 195.372C384.398 195.372 384.489 195.643 384.353 195.959C384.082 196.681 386.204 198.757 387.242 198.802C387.693 198.848 388.37 198.893 388.776 198.938C389.183 198.938 389.905 199.705 390.311 200.563C390.717 201.42 391.845 202.91 392.884 203.903C394.554 205.527 394.644 205.753 393.967 206.385C393.606 206.791 392.568 207.107 391.665 207.107C390.582 207.107 390.085 207.333 389.95 207.874C389.814 208.551 389.769 208.551 389.092 207.919Z" fill="#4DAAFF"/>
<path d="M381.374 192.845C380.652 192.484 380.111 192.077 380.111 191.987C380.111 191.536 380.833 191.807 381.916 192.664C383.27 193.702 383.044 193.793 381.374 192.845Z" fill="#4DAAFF"/>
<path d="M382.638 169.42C382.503 169.014 382.367 168.608 382.367 168.518C382.367 168.202 384.218 168.879 384.489 169.33C384.669 169.601 384.534 169.646 384.173 169.42C383.857 169.24 383.496 169.33 383.27 169.646C383.044 170.007 382.864 169.962 382.638 169.42Z" fill="#4DAAFF"/>
<path d="M368.331 118.148C367.789 117.787 367.789 117.697 368.376 117.29C369.369 116.659 370.181 116.749 370.181 117.471C370.181 118.283 369.143 118.69 368.331 118.148Z" fill="#4DAAFF"/>
<path d="M354.384 110.972C354.655 110.475 355.061 110.069 355.332 110.069C355.603 110.069 355.603 110.385 355.287 110.972C355.016 111.468 354.61 111.874 354.339 111.874C354.068 111.874 354.068 111.558 354.384 110.972Z" fill="#4DAAFF"/>
</svg>
